# xmcd
#
# Track frame offsets:
#	150
#	14586
#	28432
#	42422
#	59658
#	74933
#	95022
#	110680
#	125097
#	139507
#	158071
#	177277
#	193605
#	214037
#	228994
#	245779
#	259423
#	274359
#	292662
#	310662
#
# Disc length: 4365 seconds
#
# Revision: 1
# Processed by: cddbd v1.4PL0 Copyright (c) Steve Scherf et al.
# Submitted via: audiograbber 1.80
#
DISCID=42110b14
DTITLE=Various Artist - Hott Country 056
DYEAR=1900
DGENRE=
TTITLE0=Kathy Mattea - BFD
TTITLE1=Chris Cagle - My Love Goes On And On
TTITLE2=Handsome Ned - Put The Blame On Me
TTITLE3=George Strait - Go On
TTITLE4=Chad Brock - The Visit
TTITLE5=Clay Walker - Once in A Lifetime
TTITLE6=Sons Of the Desert - Everybody's Gotta Grow Up Sometimes
TTITLE7=Wade Hayes - What's It Gonna Take
TTITLE8=Ricochet - She's Gone
TTITLE9=Lisa Angelle - A Woman Gets Lonely
TTITLE10=hohner Brothers - See Jane Run
TTITLE11=Andy Griggs - Waitin' On Sundown
TTITLE12=Keith Urban - But For The Grace Of God
TTITLE13=Clay Davidson - I Can't Lie To Me
TTITLE14=Denise Murray - Those Were The Days
TTITLE15=Trace Adkins - I'm Gonna Love You Anyway
TTITLE16=Tracy Byrd - Take Me With You When You go
TTITLE17=Travis Tritt - Best Of Intentions
TTITLE18=Chris LeDoux - Silence On The Line
TTITLE19=John Michael Montgomery - The Little Girl
EXTD=
EXTT0=
EXTT1=
EXTT2=
EXTT3=
EXTT4=
EXTT5=
EXTT6=
EXTT7=
EXTT8=
EXTT9=
EXTT10=
EXTT11=
EXTT12=
EXTT13=
EXTT14=
EXTT15=
EXTT16=
EXTT17=
EXTT18=
EXTT19=
PLAYORDER=
